<svg version="1.1" id="Warstwa_1" xmlns="http://www.w3.org/2000/svg" xmlns:xlink="http://www.w3.org/1999/xlink" x="0px" y="0px"
	 viewBox="0 0 40.4 33.6" style="enable-background:new 0 0 40.4 33.6;" xml:space="preserve">
<path id="Icon-Laptop" class="st0" d="M33.6,0H6.7c-2.2,0-4,1.8-4,4v21.7h4V4h26.9v21.7h4V4C37.7,1.8,35.9,0,33.6,0z"/>
<path class="st0" d="M37.7,28.2h-4H6.7h-4c-1.5,0-2.7,1.2-2.7,2.7c0,1.5,2.5,2.7,4,2.7h32.3c1.5,0,4-1.2,4-2.7
	C40.4,29.4,39.2,28.2,37.7,28.2z M25.2,32.3c-0.3,0.2-0.7,0.2-1,0h-8.1c-0.4,0.3-0.9,0.2-1.2-0.2c-0.3-0.4-0.2-0.9,0.2-1.2
	c0.3-0.2,0.7-0.2,1,0h8.1c0.4-0.3,0.9-0.2,1.2,0.2C25.7,31.5,25.6,32,25.2,32.3z"/>
<path class="st0" d="M29.2,12.1L18.8,22.6c-0.3,0.3-0.7,0.7-1.4,0.7c-0.6,0-1.1-0.5-1.5-0.8c0,0,0,0,0,0l-4.7-4.8
	c-0.5-0.5-0.5-1.4,0-1.9l1.9-1.9c0.5-0.5,1.4-0.5,1.9,0c0,0,0,0,0,0l2.5,2.5l8-8c0.3-0.3,0.6-0.4,1-0.4c0.3,0,0.7,0.1,0.9,0.4l0,0
	l1.9,1.9C29.7,10.8,29.7,11.6,29.2,12.1z"/>
</svg>
