<svg version="1.1" id="Warstwa_1" xmlns="http://www.w3.org/2000/svg" xmlns:xlink="http://www.w3.org/1999/xlink" x="0px" y="0px"
	 viewBox="0 0 28 37.3" style="enable-background:new 0 0 28 37.3;" xml:space="preserve">
<path class="st0" d="M24.5,17.5h-1.2V8.2c0-4.3-3.8-7.8-8.6-8.1c0,0-0.1,0-0.1,0c-0.2,0-0.3,0-0.5,0c-0.1,0-0.1,0-0.2,0
	C8.8,0,4.7,3.7,4.7,8.2v9.3H3.5C1.6,17.5,0,19.1,0,21v12.8c0,1.9,1.6,3.5,3.5,3.5h21c0,0,0,0,0,0c1.9,0,3.5-1.6,3.5-3.5V21
	C28,19.1,26.4,17.5,24.5,17.5z M9.3,8.2c0-1.9,2.1-3.5,4.7-3.5v0c0.2,0,0.3,0,0.5,0c2.4,0.2,4.2,1.7,4.2,3.5v8.2
	c0,0.4-0.1,0.8-0.3,1.2H9.6c-0.2-0.4-0.3-0.8-0.3-1.2V8.2z M16.3,29.7v1.8c0,1.3-1,2.3-2.3,2.3c-1.3,0-2.3-1-2.3-2.3v-1.8
	c-1.4-0.8-2.3-2.3-2.3-4c0,0,0,0,0,0c0-2.6,2.1-4.7,4.7-4.7c0,0,0,0,0,0c2.6,0,4.6,2.1,4.7,4.7C18.7,27.4,17.7,28.9,16.3,29.7z"/>
</svg>
