<?xml version="1.0" encoding="utf-8"?>
<!-- Generator: Adobe Illustrator 26.5.0, SVG Export Plug-In . SVG Version: 6.00 Build 0)  -->
<svg version="1.1" id="Warstwa_1" xmlns="http://www.w3.org/2000/svg" xmlns:xlink="http://www.w3.org/1999/xlink" x="0px" y="0px"
	 viewBox="0 0 38.6 38.1" style="enable-background:new 0 0 38.6 38.1;" xml:space="preserve">
<g>
	<path d="M4,38.1h30.5l1.2-20.7H2.8L4,38.1z M26.2,32.6v-8.3c0-0.8,0.6-1.4,1.4-1.4h0c0.8,0,1.4,0.6,1.4,1.4v8.3
		c0,0.8-0.6,1.4-1.4,1.4C26.8,33.9,26.2,33.3,26.2,32.6C26.2,32.6,26.2,32.6,26.2,32.6z M17.9,32.6v-8.3c0-0.8,0.6-1.4,1.4-1.4h0
		c0.8,0,1.4,0.6,1.4,1.4v8.3c0,0.8-0.6,1.4-1.3,1.4C18.6,34,17.9,33.4,17.9,32.6C17.9,32.6,17.9,32.6,17.9,32.6z M9.6,32.6v-8.3
		c0-0.8,0.6-1.4,1.4-1.4h0c0.8,0,1.4,0.6,1.4,1.4v8.3c0,0.8-0.6,1.4-1.3,1.4S9.7,33.4,9.6,32.6C9.6,32.6,9.6,32.6,9.6,32.6z"/>
	<g>
		<path d="M38.6,12.5c0,1.9-1.5,3.5-3.4,3.5H3.5c-1.9,0-3.5-1.5-3.5-3.4c0-1.9,1.5-3.5,3.4-3.5h4c0.1-0.2,0.1-0.4,0.3-0.7l4.1-7.1
			c0.8-1.3,2.4-1.8,3.8-1s1.8,2.4,1,3.8l-2.9,5H25l-2.9-5c-0.8-1.3-0.3-3,1-3.8h0C23.5,0.1,24,0,24.4,0c1,0,1.9,0.5,2.4,1.4L31,8.5
			c0.1,0.2,0.2,0.4,0.3,0.7h3.9C37,9.1,38.6,10.6,38.6,12.5z"/>
	</g>
</g>
</svg>
